<svg width="27" height="28" viewBox="0 0 27 28" fill="none" xmlns="http://www.w3.org/2000/svg">
<path d="M27 14C27.0002 15.7727 26.6512 17.5282 25.9729 19.1661C25.2945 20.804 24.3002 22.2922 23.0466 23.5458C21.7929 24.7994 20.3046 25.7939 18.6666 26.4723C17.0286 27.1508 15.273 27.5 13.5 27.5C11.727 27.5 9.97138 27.1508 8.33337 26.4723C6.69537 25.7939 5.20706 24.7994 3.95345 23.5458C2.69983 22.2922 1.70547 20.804 1.02713 19.1661C0.348793 17.5282 -0.000227228 15.7727 1.10989e-07 14C-0.000227228 12.2272 0.348793 10.4718 1.02713 8.83389C1.70547 7.19601 2.69983 5.70777 3.95345 4.45415C5.20706 3.20054 6.69537 2.20611 8.33337 1.52765C9.97138 0.849187 11.727 0.5 13.5 0.5C15.273 0.5 17.0286 0.849187 18.6666 1.52765C20.3046 2.20611 21.7929 3.20054 23.0466 4.45415C24.3002 5.70777 25.2945 7.19601 25.9729 8.83389C26.6512 10.4718 27.0002 12.2272 27 14Z" fill="#FDFDFD"/>
<path d="M26.1444 13.9998C26.1446 15.6602 25.8177 17.3044 25.1824 18.8385C24.5471 20.3726 23.6157 21.7665 22.4416 22.9407C21.2674 24.1148 19.8735 25.0462 18.3393 25.6817C16.8051 26.3171 15.1608 26.6442 13.5002 26.6442C11.8395 26.6442 10.1952 26.3171 8.66101 25.6817C7.12683 25.0462 5.73287 24.1148 4.55872 22.9407C3.38458 21.7665 2.45325 20.3726 1.81792 18.8385C1.1826 17.3044 0.855721 15.6602 0.855957 13.9998C0.855721 12.3394 1.1826 10.6953 1.81792 9.16118C2.45325 7.6271 3.38458 6.23319 4.55872 5.05903C5.73287 3.88487 7.12683 2.95345 8.66101 2.31799C10.1952 1.68253 11.8395 1.35547 13.5002 1.35547C15.1608 1.35547 16.8051 1.68253 18.3393 2.31799C19.8735 2.95345 21.2674 3.88487 22.4416 5.05903C23.6157 6.23319 24.5471 7.6271 25.1824 9.16118C25.8177 10.6953 26.1446 12.3394 26.1444 13.9998Z" fill="#132D62"/>
<path d="M23.7218 13.9995C23.722 15.3418 23.4578 16.671 22.9442 17.9112C22.4306 19.1514 21.6777 20.2782 20.7285 21.2275C19.7793 22.1767 18.6524 22.9297 17.4121 23.4434C16.1719 23.9572 14.8425 24.2216 13.5001 24.2216C12.1576 24.2216 10.8282 23.9572 9.58797 23.4434C8.3477 22.9297 7.22079 22.1767 6.27159 21.2275C5.3224 20.2782 4.5695 19.1514 4.05591 17.9112C3.54232 16.671 3.2781 15.3418 3.27832 13.9995C3.2781 12.6571 3.54232 11.328 4.05591 10.0878C4.5695 8.84756 5.3224 7.72067 6.27159 6.77144C7.22079 5.8222 8.3477 5.06921 9.58797 4.55548C10.8282 4.04175 12.1576 3.77734 13.5001 3.77734C14.8425 3.77734 16.1719 4.04175 17.4121 4.55548C18.6524 5.06921 19.7793 5.8222 20.7285 6.77144C21.6777 7.72067 22.4306 8.84756 22.9442 10.0878C23.4578 11.328 23.722 12.6571 23.7218 13.9995Z" fill="url(#paint0_linear_2001_18569)"/>
<mask id="mask0_2001_18569" style="mask-type:luminance" maskUnits="userSpaceOnUse" x="7" y="3" width="18" height="18">
<path d="M24.0852 10.2589C24.3967 12.0258 24.1368 13.8459 23.3432 15.455C22.5496 17.0641 21.2636 18.3783 19.6719 19.2067C18.0803 20.0352 16.266 20.3347 14.4926 20.0618C12.7191 19.7888 11.0788 18.9576 9.81006 17.689C8.54127 16.4203 7.71002 14.7804 7.43707 13.0071C7.16411 11.2339 7.46366 9.41978 8.2922 7.82838C9.12074 6.23698 10.4351 4.95116 12.0444 4.15764C13.6537 3.36413 15.4741 3.10421 17.2412 3.41576L15.7761 11.7238L24.0852 10.2589Z" fill="white"/>
</mask>
<g mask="url(#mask0_2001_18569)">
<path d="M18.6783 13.9998C18.6783 15.373 18.1327 16.69 17.1616 17.6609C16.1905 18.6319 14.8734 19.1774 13.5 19.1774C12.1267 19.1774 10.8096 18.6319 9.83845 17.6609C8.86734 16.69 8.32178 15.373 8.32178 13.9998C8.32178 12.6267 8.86734 11.3097 9.83845 10.3387C10.8096 9.36776 12.1267 8.82227 13.5 8.82227C14.8734 8.82227 16.1905 9.36776 17.1616 10.3387C18.1327 11.3097 18.6783 12.6267 18.6783 13.9998Z" fill="#132D62"/>
</g>
<path d="M14.5577 14.0001C14.5577 14.2807 14.4462 14.5497 14.2478 14.7481C14.0494 14.9464 13.7804 15.0579 13.4998 15.0579C13.2192 15.0579 12.9501 14.9464 12.7517 14.7481C12.5534 14.5497 12.4419 14.2807 12.4419 14.0001C12.4419 13.7196 12.5534 13.4506 12.7517 13.2522C12.9501 13.0538 13.2192 12.9424 13.4998 12.9424C13.7804 12.9424 14.0494 13.0538 14.2478 13.2522C14.4462 13.4506 14.5577 13.7196 14.5577 14.0001Z" fill="#FDFDFD"/>
<path d="M17.5907 11.7238C17.5907 12.205 17.3996 12.6664 17.0593 13.0067C16.719 13.3469 16.2575 13.538 15.7763 13.538C15.2951 13.538 14.8336 13.3469 14.4933 13.0067C14.1531 12.6664 13.9619 12.205 13.9619 11.7238C13.9619 11.2427 14.1531 10.7813 14.4933 10.441C14.8336 10.1008 15.2951 9.90967 15.7763 9.90967C16.2575 9.90967 16.719 10.1008 17.0593 10.441C17.3996 10.7813 17.5907 11.2427 17.5907 11.7238Z" fill="#FDFDFD"/>
<path d="M9.15058 17.7516L6.6238 19.9212M8.78223 17.2764L6.04248 19.17" stroke="#FDFDFD" stroke-width="0.6"/>
<path d="M8.78223 17.2764L6.04248 19.17" stroke="#FDFDFD" stroke-width="0.6"/>
<path d="M8.46518 16.7651L5.54248 18.3621" stroke="#FDFDFD" stroke-width="0.6"/>
<path d="M8.20352 16.2236L5.12988 17.5063" stroke="#FDFDFD" stroke-width="0.6"/>
<path d="M7.99998 15.6582L4.80908 16.6126" stroke="#FDFDFD" stroke-width="0.6"/>
<path d="M7.85669 15.0742L4.5835 15.6899" stroke="#FDFDFD" stroke-width="0.6"/>
<path d="M7.77568 14.4785L4.45605 14.7487" stroke="#FDFDFD" stroke-width="0.6"/>
<path d="M7.75693 13.8775L4.42725 13.7993" stroke="#FDFDFD" stroke-width="0.6"/>
<path d="M7.80132 13.2783L4.49805 12.8525" stroke="#FDFDFD" stroke-width="0.6"/>
<path d="M7.90814 12.6862L4.66748 11.9175" stroke="#FDFDFD" stroke-width="0.6"/>
<path d="M8.07614 12.109L4.93359 11.0059" stroke="#FDFDFD" stroke-width="0.6"/>
<path d="M8.30297 11.5525L5.29297 10.127" stroke="#FDFDFD" stroke-width="0.6"/>
<path d="M8.58716 11.0229L5.74268 9.29053" stroke="#FDFDFD" stroke-width="0.6"/>
<path d="M8.92563 10.526L6.27783 8.50586" stroke="#FDFDFD" stroke-width="0.6"/>
<path d="M9.3137 10.0666L6.8916 7.78076" stroke="#FDFDFD" stroke-width="0.6"/>
<path d="M16.3042 8.98733L17.9365 6.08447" stroke="#FDFDFD" stroke-width="0.6"/>
<path d="M16.813 9.30765L18.7398 6.59131" stroke="#FDFDFD" stroke-width="0.6"/>
<path d="M18.0405 10.4812L20.6774 8.44678" stroke="#FDFDFD" stroke-width="0.6"/>
<path d="M18.3833 10.9752L21.2184 9.22754" stroke="#FDFDFD" stroke-width="0.6"/>
<path d="M18.6729 11.5018L21.6751 10.0601" stroke="#FDFDFD" stroke-width="0.6"/>
<path d="M18.9053 12.0566L22.0418 10.9365" stroke="#FDFDFD" stroke-width="0.6"/>
<path d="M19.0791 12.6319L22.3156 11.8457" stroke="#FDFDFD" stroke-width="0.6"/>
<path d="M19.1914 13.2224L22.4923 12.7788" stroke="#FDFDFD" stroke-width="0.6"/>
<path d="M17.7539 17.8599L20.2155 20.1031" stroke="#FDFDFD" stroke-width="0.6"/>
<path d="M18.1045 17.4341L20.7698 19.4311" stroke="#FDFDFD" stroke-width="0.6"/>
<path d="M18.4121 16.9771L21.2566 18.7094" stroke="#FDFDFD" stroke-width="0.6"/>
<path d="M18.6748 16.4927L21.6723 17.9445" stroke="#FDFDFD" stroke-width="0.6"/>
<path d="M18.8901 15.9849L22.013 17.1427" stroke="#FDFDFD" stroke-width="0.6"/>
<path d="M19.0562 15.4595L22.2756 16.3128" stroke="#FDFDFD" stroke-width="0.6"/>
<path d="M19.1699 14.9204L22.4563 15.4612" stroke="#FDFDFD" stroke-width="0.6"/>
<path d="M19.2319 14.3726L22.555 14.5959" stroke="#FDFDFD" stroke-width="0.6"/>
<path d="M19.2412 13.8217L22.5704 13.7256" stroke="#FDFDFD" stroke-width="0.6"/>
<mask id="mask1_2001_18569" style="mask-type:luminance" maskUnits="userSpaceOnUse" x="6" y="4" width="15" height="7">
<path d="M20.1868 4.89209H6.81006V10.4835H20.1868V4.89209Z" fill="url(#paint1_radial_2001_18569)"/>
</mask>
<g mask="url(#mask1_2001_18569)">
<path d="M6.74707 7.24832C8.53796 5.45765 10.9669 4.45166 13.4996 4.45166C16.0323 4.45166 18.4613 5.45765 20.2522 7.24832L13.4996 14L6.74707 7.24832Z" fill="url(#paint2_radial_2001_18569)"/>
</g>
<mask id="mask2_2001_18569" style="mask-type:luminance" maskUnits="userSpaceOnUse" x="0" y="3" width="27" height="22">
<path d="M26.8314 3.70752H0.115723V24.3416H26.8314V3.70752Z" fill="url(#paint3_linear_2001_18569)"/>
</mask>
<g mask="url(#mask2_2001_18569)">
<path d="M23.8237 13.9996C23.8239 15.3554 23.557 16.6979 23.0383 17.9505C22.5196 19.2031 21.7592 20.3412 20.8005 21.2999C19.8418 22.2587 18.7036 23.0192 17.4509 23.5381C16.1983 24.0569 14.8556 24.324 13.4997 24.324C12.1438 24.324 10.8012 24.0569 9.54853 23.5381C8.29586 23.0192 7.15768 22.2587 6.19899 21.2999C5.2403 20.3412 4.47988 19.2031 3.96115 17.9505C3.44243 16.6979 3.17556 15.3554 3.17578 13.9996C3.17556 12.6439 3.44243 11.3014 3.96115 10.0488C4.47988 8.79622 5.2403 7.65806 6.19899 6.69933C7.15768 5.7406 8.29586 4.98008 9.54853 4.46121C10.8012 3.94234 12.1438 3.67529 13.4997 3.67529C14.8556 3.67529 16.1983 3.94234 17.4509 4.46121C18.7036 4.98008 19.8418 5.7406 20.8005 6.69933C21.7592 7.65806 22.5196 8.79622 23.0383 10.0488C23.557 11.3014 23.8239 12.6439 23.8237 13.9996Z" fill="url(#paint4_radial_2001_18569)"/>
</g>
<defs>
<linearGradient id="paint0_linear_2001_18569" x1="3.27832" y1="13.9995" x2="23.7218" y2="13.9995" gradientUnits="userSpaceOnUse">
<stop stop-color="#A887FF" stop-opacity="0.8"/>
<stop offset="0.19" stop-color="#81A9FF"/>
<stop offset="0.567416" stop-color="#6227FF"/>
<stop offset="0.961116" stop-color="#81A9FF"/>
<stop offset="1" stop-color="#A887FF" stop-opacity="0.8"/>
</linearGradient>
<radialGradient id="paint1_radial_2001_18569" cx="0" cy="0" r="1" gradientUnits="userSpaceOnUse" gradientTransform="translate(13.4996 6.19242) rotate(89.9998) scale(4.28092 6.68724)">
<stop stop-color="white"/>
<stop offset="0.33418" stop-color="white"/>
<stop offset="1"/>
</radialGradient>
<radialGradient id="paint2_radial_2001_18569" cx="0" cy="0" r="1" gradientUnits="userSpaceOnUse" gradientTransform="translate(13.4996 9.22584) scale(6.75257 4.77338)">
<stop stop-color="white" stop-opacity="0"/>
<stop offset="0.89" stop-color="#666666" stop-opacity="0"/>
<stop offset="1" stop-color="#333333"/>
</radialGradient>
<linearGradient id="paint3_linear_2001_18569" x1="14.035" y1="24.3415" x2="14.035" y2="3.60915" gradientUnits="userSpaceOnUse">
<stop stop-color="#B3B3B3"/>
<stop offset="0.5" stop-color="#E6E6E6"/>
<stop offset="0.898876" stop-color="white"/>
<stop offset="1" stop-color="white"/>
</linearGradient>
<radialGradient id="paint4_radial_2001_18569" cx="0" cy="0" r="1" gradientUnits="userSpaceOnUse" gradientTransform="translate(13.4997 13.9996) scale(10.3239 10.3226)">
<stop stop-color="white" stop-opacity="0"/>
<stop offset="0.89" stop-color="#666666" stop-opacity="0"/>
<stop offset="1" stop-color="#333333"/>
</radialGradient>
</defs>
</svg>
