<svg width="22" height="22" viewBox="0 0 22 22" fill="none" xmlns="http://www.w3.org/2000/svg">
  <path d="M17.3618 15.8302L22 20.4684L20.4684 22L15.8302 17.3618C14.1625 18.6961 12.0474 19.4942 9.74712 19.4942C4.36671 19.4942 0 15.1275 0 9.74712C0 4.36671 4.36671 0 9.74712 0C15.1275 0 19.4942 4.36671 19.4942 9.74712C19.4942 12.0474 18.6961 14.1625 17.3618 15.8302ZM15.1889 15.0266C16.5132 13.6618 17.3282 11.8001 17.3282 9.74712C17.3282 5.55856 13.9357 2.16603 9.74712 2.16603C5.55856 2.16603 2.16603 5.55856 2.16603 9.74712C2.16603 13.9357 5.55856 17.3282 9.74712 17.3282C11.8001 17.3282 13.6618 16.5132 15.0266 15.1889L15.1889 15.0266Z" fill="#FDFDFD" />
</svg>