<svg width="20" height="20" viewBox="0 0 20 20" fill="none" xmlns="http://www.w3.org/2000/svg">
  <g clip-path="url(#clip0_1262_24169)">
    <path d="M7.56266 13.5416L10.0002 12.0624L12.4377 13.5416L11.7918 10.7708L13.9585 8.89575L11.1043 8.66658L10.0002 6.04159L8.896 8.66658L6.04183 8.89575L8.2085 10.7708L7.56266 13.5416ZM10.0002 19.4166L7.2085 16.6666H3.3335V12.7916L0.583496 9.99992L3.3335 7.20825V3.33325H7.2085L10.0002 0.583252L12.7918 3.33325H16.6668V7.20825L19.4168 9.99992L16.6668 12.7916V16.6666H12.7918L10.0002 19.4166ZM10.0002 17.0833L12.0835 14.9999H15.0002V12.0833L17.0835 9.99992L15.0002 7.91659V4.99992H12.0835L10.0002 2.91659L7.91683 4.99992H5.00016V7.91659L2.91683 9.99992L5.00016 12.0833V14.9999H7.91683L10.0002 17.0833Z" fill="#FDFDFD" />
  </g>
  <defs>
    <clipPath id="clip0_1262_24169">
      <rect width="20" height="20" fill="white" />
    </clipPath>
  </defs>
</svg>