<?xml version="1.0" encoding="UTF-8"?>
<svg xmlns="http://www.w3.org/2000/svg" xmlns:xlink="http://www.w3.org/1999/xlink" width="0" height="0">
<symbol id="star-outline" width="24" height="24" viewBox="0 0 24 24" fill="none">
<path d="M8.08162 17.8827L9.0523 13.7236L9.12089 13.4297L8.89278 13.2321L5.6633 10.4342L9.91649 10.0661L10.2161 10.0402L10.3336 9.76337L12.0004 5.83657L13.6671 9.7624L13.7847 10.0392L14.0843 10.0651L18.3365 10.4332L15.107 13.2311L14.8788 13.4288L14.9475 13.7227L15.919 17.8818L12.2586 15.6739L12.0003 15.5181L11.7421 15.6739L8.08162 17.8827Z" stroke="url(#paint0_linear_535_12727)"/>
<defs>
<linearGradient x1="4.44238" y1="11.74" x2="19.5574" y2="11.74" gradientUnits="userSpaceOnUse">
<stop stop-color="#1041AA"/>
<stop offset="1" stop-color="#071A44"/>
</linearGradient>
</defs>
</symbol>

<symbol id="dots" width="32" height="33" viewBox="0 0 32 33" fill="none">
<path fill-rule="evenodd" clip-rule="evenodd" d="M13.5 8.25C13.5 8.97935 13.7634 9.67882 14.2322 10.1945C14.7011 10.7103 15.337 11 16 11C16.663 11 17.2989 10.7103 17.7678 10.1945C18.2366 9.67882 18.5 8.97935 18.5 8.25C18.5 7.52065 18.2366 6.82118 17.7678 6.30546C17.2989 5.78973 16.663 5.5 16 5.5C15.337 5.5 14.7011 5.78973 14.2322 6.30546C13.7634 6.82118 13.5 7.52065 13.5 8.25ZM13.5 24.75C13.5 25.4793 13.7634 26.1788 14.2322 26.6945C14.7011 27.2103 15.337 27.5 16 27.5C16.663 27.5 17.2989 27.2103 17.7678 26.6945C18.2366 26.1788 18.5 25.4793 18.5 24.75C18.5 24.0207 18.2366 23.3212 17.7678 22.8055C17.2989 22.2897 16.663 22 16 22C15.337 22 14.7011 22.2897 14.2322 22.8055C13.7634 23.3212 13.5 24.0207 13.5 24.75ZM13.5 16.7486C13.5 17.4779 13.7634 18.1774 14.2322 18.6931C14.7011 19.2089 15.337 19.4986 16 19.4986C16.663 19.4986 17.2989 19.2089 17.7678 18.6931C18.2366 18.1774 18.5 17.4779 18.5 16.7486C18.5 16.0193 18.2366 15.3198 17.7678 14.8041C17.2989 14.2883 16.663 13.9986 16 13.9986C15.337 13.9986 14.7011 14.2883 14.2322 14.8041C13.7634 15.3198 13.5 16.0193 13.5 16.7486Z" fill="#24448A"/>
</symbol>

<symbol id="placeholder" width="100" height="100" viewBox="0 0 100 100" fill="none">
<rect x="7" y="12" width="86" height="75" rx="8" fill="#9E9E9E"/>
<path fill-rule="evenodd" clip-rule="evenodd" d="M62.5138 50C62.5138 56.9182 56.8928 62.5138 50 62.5138C43.0819 62.5138 37.4863 56.9182 37.4863 50C37.4863 43.1073 43.0819 37.4863 50 37.4863C56.8928 37.4863 62.5138 43.1073 62.5138 50ZM57.3252 59.0801C57.198 56.3586 54.9597 54.1713 52.2128 54.1713H47.7618C45.0149 54.1713 42.7767 56.3586 42.6495 59.0801C44.6588 60.7079 47.2023 61.6744 50 61.6744C52.7724 61.6744 55.3413 60.7079 57.3252 59.0801ZM61.6745 50C61.6745 43.5651 56.435 38.3257 50 38.3257C43.5651 38.3257 38.3257 43.5651 38.3257 50C38.3257 53.2811 39.6991 56.2569 41.8865 58.3934C42.3443 55.5447 44.786 53.332 47.7618 53.332H52.2128C55.1887 53.332 57.6558 55.5447 58.1137 58.3934C60.301 56.2569 61.6745 53.2811 61.6745 50ZM54.1713 47.5075C54.1713 49.7966 52.2891 51.6787 50 51.6787C47.6855 51.6787 45.8288 49.7966 45.8288 47.5075C45.8288 45.1929 47.6855 43.3362 50 43.3362C52.2891 43.3362 54.1713 45.1929 54.1713 47.5075ZM53.332 47.5075C53.332 45.6762 51.8313 44.1756 50 44.1756C48.1688 44.1756 46.6682 45.6762 46.6682 47.5075C46.6682 49.3388 48.1688 50.8394 50 50.8394C51.8313 50.8394 53.332 49.3388 53.332 47.5075Z" fill="white"/>
</symbol>

<symbol id="circle-user" width="26" height="26" viewBox="0 0 26 26" fill="none">
<path fill-rule="evenodd" clip-rule="evenodd" d="M25.5138 13C25.5138 19.9182 19.8928 25.5138 13 25.5138C6.08189 25.5138 0.486328 19.9182 0.486328 13C0.486328 6.10732 6.08189 0.486328 13 0.486328C19.8928 0.486328 25.5138 6.10732 25.5138 13ZM20.3252 22.0801C20.198 19.3586 17.9597 17.1713 15.2128 17.1713H10.7618C8.01489 17.1713 5.7767 19.3586 5.64953 22.0801C7.65885 23.7079 10.2023 24.6744 13 24.6744C15.7724 24.6744 18.3413 23.7079 20.3252 22.0801ZM24.6745 13C24.6745 6.56514 19.435 1.32566 13 1.32566C6.56514 1.32566 1.32568 6.56514 1.32568 13C1.32568 16.2811 2.69913 19.2569 4.88649 21.3934C5.34431 18.5447 7.78598 16.332 10.7618 16.332H15.2128C18.1887 16.332 20.6558 18.5447 21.1137 21.3934C23.301 19.2569 24.6745 16.2811 24.6745 13ZM17.1713 10.5075C17.1713 12.7966 15.2891 14.6787 13 14.6787C10.6855 14.6787 8.82883 12.7966 8.82883 10.5075C8.82883 8.19295 10.6855 6.33624 13 6.33624C15.2891 6.33624 17.1713 8.19295 17.1713 10.5075ZM16.332 10.5075C16.332 8.6762 14.8313 7.17557 13 7.17557C11.1688 7.17557 9.66818 8.6762 9.66818 10.5075C9.66818 12.3388 11.1688 13.8394 13 13.8394C14.8313 13.8394 16.332 12.3388 16.332 10.5075Z" fill="white"/>
</symbol>

<symbol id="collapse-categories" width="24" height="24" viewBox="0 0 24 24" fill="none">
<path d="M10.5005 18.75H21.0005V20.25H10.5005V18.75ZM5.37805 19.5L3.44305 21.435L4.50055 22.5L7.50055 19.5L4.50055 16.5L3.43555 17.5575L5.37805 19.5ZM10.5005 11.25H21.0005V12.75H10.5005V11.25ZM5.37805 12L3.44305 13.935L4.50055 15L7.50055 12L4.50055 9L3.43555 10.0575L5.37805 12ZM10.5005 3.75H21.0005V5.25H10.5005V3.75ZM5.37805 4.5L3.44305 6.435L4.50055 7.5L7.50055 4.5L4.50055 1.5L3.43555 2.5575L5.37805 4.5Z" fill="#FDFDFD"/>
</symbol>

<symbol id="filter-remove" width="20" height="20" viewBox="0 0 20 20" fill="none">
<path d="M11.1745 17.325L9.99948 18.0834C8.90781 18.7584 7.39115 18 7.39115 16.65V12.1917C7.39115 11.6 7.05781 10.8417 6.71615 10.425L3.51615 7.05835C3.09115 6.63335 2.75781 5.88338 2.75781 5.37505V3.44171C2.75781 2.43338 3.51615 1.67505 4.44115 1.67505H15.5578C16.4828 1.67505 17.2411 2.4334 17.2411 3.3584V5.20837C17.2411 5.88337 16.8161 6.72505 16.3995 7.14171" stroke="#FDFDFD" stroke-width="1.5" stroke-miterlimit="10" stroke-linecap="round" stroke-linejoin="round"/>
<path d="M18.0241 12.2917C18.0241 13.0334 17.8158 13.7334 17.4491 14.3334C16.7658 15.4834 15.5074 16.25 14.0658 16.25C12.6241 16.25 11.3658 15.4751 10.6824 14.3334C10.3158 13.7417 10.1074 13.0334 10.1074 12.2917C10.1074 10.1084 11.8824 8.33337 14.0658 8.33337C16.2491 8.33337 18.0241 10.1084 18.0241 12.2917Z" stroke="#FDFDFD" stroke-width="1.5" stroke-miterlimit="10" stroke-linecap="round" stroke-linejoin="round"/>
<path d="M15.1268 13.325L13.0352 11.2333" stroke="#FDFDFD" stroke-width="1.5" stroke-miterlimit="10" stroke-linecap="round" stroke-linejoin="round"/>
<path d="M15.1092 11.2583L13.0176 13.35" stroke="#FDFDFD" stroke-width="1.5" stroke-miterlimit="10" stroke-linecap="round" stroke-linejoin="round"/>
<path d="M17.2411 3.34998V5.19995C17.2411 5.87495 16.8161 6.71663 16.3995 7.14163L14.9328 8.43329C14.6578 8.36662 14.3661 8.33329 14.0661 8.33329C11.8828 8.33329 10.1078 10.1083 10.1078 12.2916C10.1078 13.0333 10.3161 13.7333 10.6828 14.3333C10.9911 14.85 11.4161 15.2916 11.9328 15.6083V15.8916C11.9328 16.4 11.5995 17.0749 11.1745 17.3249L9.99948 18.0833C8.90781 18.7583 7.39115 17.9999 7.39115 16.6499V12.1916C7.39115 11.6 7.04948 10.8416 6.71615 10.425L3.51615 7.05827C3.09948 6.63327 2.75781 5.87497 2.75781 5.37497V3.43329C2.75781 2.42496 3.51615 1.66663 4.44115 1.66663H15.5578C16.4828 1.66663 17.2411 2.42498 17.2411 3.34998Z" stroke="#FDFDFD" stroke-width="1.5" stroke-miterlimit="10" stroke-linecap="round" stroke-linejoin="round"/>
</symbol>

<symbol id="star-filled" width="24" height="24" viewBox="0 0 24 24" fill="none">
<path d="M7.32538 18.923L8.56538 13.61L4.44238 10.038L9.87338 9.56801L12.0004 4.55701L14.1274 9.56701L19.5574 10.037L15.4344 13.609L16.6754 18.922L12.0004 16.102L7.32538 18.923Z" fill="url(#paint0_linear_535_12725)"/>
<defs>
<linearGradient x1="4.44238" y1="11.74" x2="19.5574" y2="11.74" gradientUnits="userSpaceOnUse">
<stop offset="0.242888" stop-color="#1041AA"/>
<stop offset="1" stop-color="#6E83B0"/>
</linearGradient>
</defs>
</symbol>

<symbol id="star-default" width="24" height="24" viewBox="0 0 24 24" fill="none">
<path d="M7.32538 18.923L8.56538 13.61L4.44238 10.038L9.87338 9.56801L12.0004 4.55701L14.1274 9.56701L19.5574 10.037L15.4344 13.609L16.6754 18.922L12.0004 16.102L7.32538 18.923Z" fill="url(#paint0_linear_535_12723)"/>
<defs>
<linearGradient x1="4.44238" y1="11.74" x2="19.5574" y2="11.74" gradientUnits="userSpaceOnUse">
<stop stop-color="#1041AA"/>
<stop offset="1" stop-color="#071A44"/>
</linearGradient>
</defs>
</symbol>

<symbol id="arrow-mobile" width="39" height="12" viewBox="0 0 39 12" fill="none">
<path d="M0 6L10 11.7735V0.226497L0 6ZM9 7H39V5H9V7Z" fill="#24448A"/>
</symbol>

<symbol id="arrow-tablet" width="39" height="20" viewBox="0 0 39 20" fill="none">
<path d="M0 10L16 19.2376V0.762396L0 10ZM14.4 11.6H39V8.4H14.4V11.6Z" fill="#24448A"/>
</symbol>

<symbol id="arrow-deskTop" width="39" height="24" viewBox="0 0 39 24" fill="none">
<path d="M0 12L20 23.547V0.452994L0 12ZM18 14H39V10H18V14Z" fill="#24448A"/>
</symbol>

<symbol id="send" width="25" height="24" viewBox="0 0 25 24" fill="none">
<rect x="0.320898" y="0.15" width="23.7" height="23.7" rx="11.85" fill="#FDFDFD"/>
<rect x="0.320898" y="0.15" width="23.7" height="23.7" rx="11.85" stroke="#FDFDFD" stroke-width="0.3"/>
<g clip-path="url(#clip0_428_24030)">
<path fill-rule="evenodd" clip-rule="evenodd" d="M16.3015 7.87052L7.62064 11.0093L10.5127 12.6832L13.0627 10.1324C13.1921 10.0032 13.3675 9.93057 13.5504 9.93064C13.7332 9.9307 13.9086 10.0034 14.0379 10.1328C14.1671 10.2621 14.2397 10.4375 14.2397 10.6204C14.2396 10.8033 14.1669 10.9787 14.0375 11.1079L11.4868 13.6587L13.162 16.55L16.3015 7.87052ZM16.5242 6.32352C17.348 6.02502 18.1463 6.82333 17.8478 7.64716L14.2064 17.7158C13.9072 18.5417 12.7794 18.6423 12.3389 17.8819L10.1211 14.0503L6.28942 11.8325C5.52902 11.3919 5.62967 10.2641 6.45557 9.9649L16.5242 6.32352Z" fill="#24448A"/>
</g>
<defs>
<clipPath>
<rect width="14" height="14" fill="white" transform="translate(5.1709 5)"/>
</clipPath>
</defs>
</symbol>

<symbol id="eye-crossed" width="26" height="20" viewBox="0 0 26 20" fill="none">
<path d="M20.1322 18.4211C20.041 18.4212 19.9507 18.4031 19.8664 18.3678C19.7822 18.3324 19.7057 18.2806 19.6414 18.2152L4.36388 2.76495C4.23915 2.63217 4.17064 2.45537 4.17296 2.27224C4.17528 2.08911 4.24824 1.91415 4.37629 1.78464C4.50435 1.65514 4.67736 1.58135 4.85844 1.57901C5.03952 1.57666 5.21434 1.64595 5.34563 1.77209L20.6231 17.2223C20.7202 17.3206 20.7862 17.4457 20.813 17.5819C20.8398 17.718 20.826 17.8592 20.7735 17.9875C20.721 18.1158 20.632 18.2254 20.5179 18.3026C20.4037 18.3798 20.2695 18.421 20.1322 18.4211ZM12.4787 15.6119C10.678 15.6119 8.94148 15.0729 7.31738 14.0098C5.83868 13.0442 4.50754 11.6611 3.46763 10.0156V10.0121C4.33307 8.75806 5.28097 7.69761 6.29917 6.84258C6.30838 6.8348 6.3159 6.82516 6.32124 6.81429C6.32658 6.80341 6.32963 6.79154 6.3302 6.77941C6.33077 6.76728 6.32885 6.75517 6.32456 6.74383C6.32026 6.73249 6.31369 6.72218 6.30525 6.71354L5.44068 5.84051C5.42532 5.82485 5.40469 5.81561 5.38289 5.81463C5.3611 5.81365 5.33974 5.82101 5.32307 5.83524C4.24149 6.75699 3.2376 7.88767 2.32486 9.21147C2.16783 9.43941 2.08134 9.70942 2.0764 9.98718C2.07145 10.2649 2.14827 10.5379 2.29709 10.7714C3.44333 12.5855 4.91856 14.1134 6.56262 15.1892C8.41371 16.402 10.4059 17.0165 12.4787 17.0165C13.5976 17.013 14.7086 16.8265 15.7686 16.4643C15.7826 16.4595 15.7951 16.4512 15.805 16.4401C15.815 16.4291 15.8219 16.4156 15.8253 16.4011C15.8286 16.3865 15.8282 16.3714 15.8242 16.357C15.8201 16.3426 15.8125 16.3296 15.802 16.319L14.8654 15.3718C14.8438 15.3506 14.8172 15.3353 14.788 15.3276C14.7589 15.3199 14.7283 15.32 14.6992 15.3279C13.9738 15.5168 13.2278 15.6122 12.4787 15.6119ZM22.686 9.22991C21.5376 7.43382 20.0476 5.90811 18.3775 4.81737C16.5299 3.60944 14.49 2.9708 12.4787 2.9708C11.3717 2.97276 10.2729 3.16313 9.22837 3.53395C9.21445 3.53885 9.202 3.54725 9.19218 3.55836C9.18236 3.56947 9.17549 3.58292 9.17224 3.59746C9.16898 3.61199 9.16944 3.62712 9.17356 3.64143C9.17769 3.65574 9.18535 3.66875 9.19582 3.67923L10.1311 4.62512C10.1529 4.64677 10.1799 4.66222 10.2095 4.66993C10.2391 4.67764 10.2701 4.67732 10.2995 4.66901C11.01 4.47464 11.7427 4.3759 12.4787 4.37537C14.2448 4.37537 15.9761 4.92096 17.624 5.9994C19.1305 6.9826 20.4773 8.36435 21.5198 9.99364L21.521 9.99716L21.5198 10.0007C20.7631 11.2055 19.824 12.2827 18.7369 13.193C18.7275 13.2007 18.7199 13.2104 18.7145 13.2213C18.7091 13.2322 18.706 13.2441 18.7054 13.2563C18.7048 13.2685 18.7067 13.2806 18.711 13.292C18.7153 13.3034 18.7219 13.3138 18.7303 13.3225L19.594 14.1955C19.6093 14.2111 19.6298 14.2203 19.6515 14.2214C19.6732 14.2225 19.6945 14.2153 19.7112 14.2012C20.8718 13.213 21.8764 12.0513 22.6903 10.7565C22.8342 10.5283 22.9103 10.2632 22.9095 9.99256C22.9087 9.72195 22.8312 9.45725 22.686 9.22991Z" fill="#FDFDFD"/>
<path d="M12.4935 5.78031C12.1814 5.78018 11.8703 5.81552 11.566 5.88565C11.5506 5.88888 11.5364 5.89626 11.5249 5.90701C11.5133 5.91776 11.5049 5.93148 11.5004 5.9467C11.496 5.96192 11.4957 5.97808 11.4996 5.99345C11.5035 6.00883 11.5114 6.02284 11.5226 6.03401L16.4092 10.9746C16.4203 10.9859 16.4341 10.9939 16.4493 10.9979C16.4645 11.0018 16.4805 11.0015 16.4956 10.997C16.5106 10.9925 16.5242 10.984 16.5348 10.9723C16.5454 10.9606 16.5527 10.9462 16.5559 10.9307C16.695 10.3136 16.6949 9.67269 16.5555 9.05563C16.4162 8.43858 16.1411 7.8612 15.7508 7.36639C15.3605 6.87158 14.865 6.47205 14.3011 6.19746C13.7372 5.92288 13.1194 5.7803 12.4935 5.78031ZM8.57779 9.01345C8.56675 9.00216 8.55289 8.99412 8.53768 8.99017C8.52248 8.98622 8.5065 8.98651 8.49145 8.99101C8.4764 8.99551 8.46284 9.00406 8.45221 9.01574C8.44158 9.02742 8.43428 9.0418 8.43109 9.05734C8.27369 9.75276 8.29345 10.4772 8.48853 11.1628C8.6836 11.8484 9.0476 12.4726 9.54641 12.9771C10.0452 13.4815 10.6625 13.8496 11.3404 14.0469C12.0183 14.2442 12.7347 14.2642 13.4223 14.105C13.4377 14.1018 13.4519 14.0944 13.4634 14.0837C13.475 14.0729 13.4834 14.0592 13.4879 14.044C13.4923 14.0287 13.4926 14.0126 13.4887 13.9972C13.4848 13.9818 13.4769 13.9678 13.4657 13.9567L8.57779 9.01345Z" fill="#FDFDFD"/>
</symbol>

<symbol id="arrows-alt" width="29" height="30" viewBox="0 0 29 30" fill="none">
<g filter="url(#filter0_d_519_12378)">
<path d="M13.3329 12.7595C13.3985 12.824 13.4507 12.9007 13.4865 12.9854C13.5224 13.07 13.5412 13.1609 13.542 13.2528C13.5427 13.3448 13.5254 13.436 13.4909 13.5212C13.4564 13.6064 13.4054 13.684 13.3409 13.7495L6.60392 20.6035L10.8699 20.6025C11.0556 20.6025 11.2336 20.6762 11.3649 20.8075C11.4962 20.9388 11.5699 21.1168 11.5699 21.3025C11.5699 21.4881 11.4962 21.6662 11.3649 21.7975C11.2336 21.9287 11.0556 22.0025 10.8699 22.0025H4.86992C4.68427 22.0025 4.50622 21.9287 4.37495 21.7975C4.24367 21.6662 4.16992 21.4881 4.16992 21.3025V15.3025C4.16992 15.1168 4.24367 14.9388 4.37495 14.8075C4.50622 14.6762 4.68427 14.6025 4.86992 14.6025C5.05557 14.6025 5.23362 14.6762 5.3649 14.8075C5.49617 14.9388 5.56992 15.1168 5.56992 15.3025L5.57092 19.6565L12.3429 12.7685C12.4073 12.7029 12.484 12.6506 12.5686 12.6147C12.6533 12.5787 12.7441 12.5598 12.8361 12.5589C12.928 12.5581 13.0192 12.5754 13.1044 12.6098C13.1897 12.6442 13.2673 12.6951 13.3329 12.7595ZM23.4719 1.9975C23.6576 1.9975 23.8356 2.07125 23.9669 2.20252C24.0982 2.3338 24.1719 2.51185 24.1719 2.6975V8.6975C24.1719 8.88315 24.0982 9.0612 23.9669 9.19247C23.8356 9.32375 23.6576 9.3975 23.4719 9.3975C23.2863 9.3975 23.1082 9.32375 22.9769 9.19247C22.8457 9.0612 22.7719 8.88315 22.7719 8.6975L22.7699 4.3435L15.9979 11.2315C15.8665 11.3577 15.6911 11.4276 15.509 11.4266C15.3268 11.4255 15.1523 11.3535 15.0224 11.2258C14.8925 11.0981 14.8175 10.9248 14.8133 10.7427C14.8091 10.5606 14.876 10.384 14.9999 10.2505L21.7369 3.3965L17.4709 3.3975C17.2853 3.3975 17.1072 3.32375 16.9759 3.19247C16.8447 3.0612 16.7709 2.88315 16.7709 2.6975C16.7709 2.51185 16.8447 2.3338 16.9759 2.20252C17.1072 2.07125 17.2853 1.9975 17.4709 1.9975H23.4719Z" fill="white"/>
</g>
<defs>
<filter x="-1.8291" y="0" width="32" height="32" filterUnits="userSpaceOnUse" color-interpolation-filters="sRGB">
<feFlood flood-opacity="0" result="BackgroundImageFix"/>
<feColorMatrix in="SourceAlpha" type="matrix" values="0 0 0 0 0 0 0 0 0 0 0 0 0 0 0 0 0 0 127 0" result="hardAlpha"/>
<feOffset dy="4"/>
<feGaussianBlur stdDeviation="2"/>
<feComposite in2="hardAlpha" operator="out"/>
<feColorMatrix type="matrix" values="0 0 0 0 0 0 0 0 0 0 0 0 0 0 0 0 0 0 0.25 0"/>
<feBlend mode="normal" in2="BackgroundImageFix" result="effect1_dropShadow_519_12378"/>
<feBlend mode="normal" in="SourceGraphic" in2="effect1_dropShadow_519_12378" result="shape"/>
</filter>
</defs>
</symbol>

<symbol id="qr-code" width="25" height="24" viewBox="0 0 25 24" fill="none">
<g clip-path="url(#clip0_428_24010)">
<path d="M3.1709 3H6.1709V6H3.1709V3Z" fill="#FDFDFD"/>
<path d="M9.1709 0V9H0.170898V0H9.1709ZM7.6709 1.5H1.6709V7.5H7.6709V1.5ZM6.1709 18H3.1709V21H6.1709V18Z" fill="#FDFDFD"/>
<path d="M9.1709 15V24H0.170898V15H9.1709ZM1.6709 16.5V22.5H7.6709V16.5H1.6709ZM18.1709 3H21.1709V6H18.1709V3Z" fill="#FDFDFD"/>
<path d="M15.1709 0V9H24.1709V0H15.1709ZM22.6709 1.5V7.5H16.6709V1.5H22.6709ZM12.1709 1.5V0H13.6709V3H12.1709V6H10.6709V1.5H12.1709ZM12.1709 9V6H13.6709V9H12.1709ZM9.1709 12V10.5H10.6709V9H12.1709V12H13.6709V10.5H21.1709V12H15.1709V13.5H10.6709V12H9.1709ZM9.1709 12V13.5H3.1709V12H1.6709V13.5H0.170898V10.5H4.6709V12H9.1709ZM24.1709 13.5H22.6709V10.5H24.1709V13.5ZM22.6709 13.5H21.1709V16.5H24.1709V15H22.6709V13.5ZM16.6709 13.5H19.6709V15H18.1709V16.5H16.6709V13.5ZM19.6709 18V16.5H18.1709V18H16.6709V19.5H13.6709V21H18.1709V18H19.6709ZM19.6709 18H24.1709V19.5H21.1709V21H19.6709V18ZM13.6709 16.5V18H15.1709V15H10.6709V16.5H13.6709Z" fill="#FDFDFD"/>
<path d="M10.6709 18H12.1709V22.5H18.1709V24H10.6709V18ZM24.1709 21V24H19.6709V22.5H22.6709V21H24.1709Z" fill="#FDFDFD"/>
</g>
<defs>
<clipPath>
<rect width="24" height="24" fill="white" transform="translate(0.170898)"/>
</clipPath>
</defs>
</symbol>

<symbol id="white_star" width="28" height="26" viewBox="0 0 28 26" fill="none">
<path d="M8.43373 21.8988L13.9462 18.5737L19.4587 21.9425L18.015 15.6425L22.8712 11.4425L16.4837 10.8737L13.9462 4.92375L11.4087 10.83L5.02123 11.3987L9.87748 15.6425L8.43373 21.8988ZM5.76498 25.5702L7.93498 16.2725L0.719727 10.0215L10.224 9.199L13.9462 0.429749L17.6685 9.19725L27.171 10.0197L19.9557 16.2707L22.1275 25.5685L13.9462 20.6335L5.76498 25.5702Z" fill="#FDFDFD"/>
</symbol>

<symbol id="calendar" width="27" height="26" viewBox="0 0 27 26" fill="none">
<path d="M1.71973 12.6923C1.71973 8.05108 1.71973 5.72985 3.12613 4.28862C4.53253 2.84739 6.79453 2.84616 11.3197 2.84616H16.1197C20.6449 2.84616 22.9081 2.84616 24.3133 4.28862C25.7185 5.73108 25.7197 8.05108 25.7197 12.6923V15.1539C25.7197 19.7951 25.7197 22.1163 24.3133 23.5575C22.9069 24.9988 20.6449 25 16.1197 25H11.3197C6.79453 25 4.53133 25 3.12613 23.5575C1.72093 22.1151 1.71973 19.7951 1.71973 15.1539V12.6923Z" stroke="#FDFDFD" stroke-width="2"/>
<path d="M7.72031 2.84615V1M19.7203 2.84615V1M2.32031 9H25.1203" stroke="#FDFDFD" stroke-width="2" stroke-linecap="round"/>
<path d="M20.9195 18.8459C20.9195 19.1723 20.7931 19.4854 20.5681 19.7162C20.343 19.947 20.0378 20.0767 19.7195 20.0767C19.4013 20.0767 19.096 19.947 18.871 19.7162C18.646 19.4854 18.5195 19.1723 18.5195 18.8459C18.5195 18.5195 18.646 18.2065 18.871 17.9756C19.096 17.7448 19.4013 17.6152 19.7195 17.6152C20.0378 17.6152 20.343 17.7448 20.5681 17.9756C20.7931 18.2065 20.9195 18.5195 20.9195 18.8459ZM20.9195 13.9228C20.9195 14.2493 20.7931 14.5623 20.5681 14.7931C20.343 15.0239 20.0378 15.1536 19.7195 15.1536C19.4013 15.1536 19.096 15.0239 18.871 14.7931C18.646 14.5623 18.5195 14.2493 18.5195 13.9228C18.5195 13.5964 18.646 13.2834 18.871 13.0526C19.096 12.8217 19.4013 12.6921 19.7195 12.6921C20.0378 12.6921 20.343 12.8217 20.5681 13.0526C20.7931 13.2834 20.9195 13.5964 20.9195 13.9228ZM14.9195 18.8459C14.9195 19.1723 14.7931 19.4854 14.5681 19.7162C14.343 19.947 14.0378 20.0767 13.7195 20.0767C13.4013 20.0767 13.096 19.947 12.871 19.7162C12.646 19.4854 12.5195 19.1723 12.5195 18.8459C12.5195 18.5195 12.646 18.2065 12.871 17.9756C13.096 17.7448 13.4013 17.6152 13.7195 17.6152C14.0378 17.6152 14.343 17.7448 14.5681 17.9756C14.7931 18.2065 14.9195 18.5195 14.9195 18.8459ZM14.9195 13.9228C14.9195 14.2493 14.7931 14.5623 14.5681 14.7931C14.343 15.0239 14.0378 15.1536 13.7195 15.1536C13.4013 15.1536 13.096 15.0239 12.871 14.7931C12.646 14.5623 12.5195 14.2493 12.5195 13.9228C12.5195 13.5964 12.646 13.2834 12.871 13.0526C13.096 12.8217 13.4013 12.6921 13.7195 12.6921C14.0378 12.6921 14.343 12.8217 14.5681 13.0526C14.7931 13.2834 14.9195 13.5964 14.9195 13.9228ZM8.91953 18.8459C8.91953 19.1723 8.7931 19.4854 8.56806 19.7162C8.34302 19.947 8.03779 20.0767 7.71953 20.0767C7.40127 20.0767 7.09605 19.947 6.871 19.7162C6.64596 19.4854 6.51953 19.1723 6.51953 18.8459C6.51953 18.5195 6.64596 18.2065 6.871 17.9756C7.09605 17.7448 7.40127 17.6152 7.71953 17.6152C8.03779 17.6152 8.34302 17.7448 8.56806 17.9756C8.7931 18.2065 8.91953 18.5195 8.91953 18.8459ZM8.91953 13.9228C8.91953 14.2493 8.7931 14.5623 8.56806 14.7931C8.34302 15.0239 8.03779 15.1536 7.71953 15.1536C7.40127 15.1536 7.09605 15.0239 6.871 14.7931C6.64596 14.5623 6.51953 14.2493 6.51953 13.9228C6.51953 13.5964 6.64596 13.2834 6.871 13.0526C7.09605 12.8217 7.40127 12.6921 7.71953 12.6921C8.03779 12.6921 8.34302 12.8217 8.56806 13.0526C8.7931 13.2834 8.91953 13.5964 8.91953 13.9228Z" fill="#FDFDFD"/>
</symbol>

<symbol id="magnifier" width="23" height="22" viewBox="0 0 23 22" fill="none">
<path d="M18.0815 15.8302L22.7197 20.4684L21.1881 22L16.5499 17.3618C14.8822 18.6961 12.7672 19.4942 10.4668 19.4942C5.08643 19.4942 0.719727 15.1275 0.719727 9.74712C0.719727 4.36671 5.08643 0 10.4668 0C15.8473 0 20.214 4.36671 20.214 9.74712C20.214 12.0474 19.4158 14.1625 18.0815 15.8302ZM15.9087 15.0266C17.233 13.6618 18.0479 11.8001 18.0479 9.74712C18.0479 5.55856 14.6554 2.16603 10.4668 2.16603C6.27829 2.16603 2.88575 5.55856 2.88575 9.74712C2.88575 13.9357 6.27829 17.3282 10.4668 17.3282C12.5198 17.3282 14.3815 16.5132 15.7463 15.1889L15.9087 15.0266Z" fill="#FDFDFD"/>
</symbol>

<symbol id="blue-star" width="23" height="22" viewBox="0 0 23 22" fill="none">
<path d="M15.2925 13.4622C15.133 13.4177 14.1253 13.0304 14.755 11.398H14.746C16.3875 9.95639 17.6419 7.6366 17.6419 5.35271C17.6419 1.84096 14.9034 0 11.7207 0C8.53604 0 5.81262 1.8401 5.81262 5.35271C5.81262 7.646 7.06002 9.9752 8.71152 11.4134C9.35528 12.8534 8.20414 13.3878 7.96348 13.4622C4.63039 14.4908 0.719727 16.3643 0.719727 18.2138V18.9072C0.719727 21.4271 6.44935 22 11.7518 22C17.0623 22 22.7197 21.4271 22.7197 18.9072V18.2138C22.7197 16.3087 18.79 14.4498 15.2925 13.4622ZM9.76139 20.9089C9.76139 18.7294 11.3888 15.7871 11.3888 15.7871L10.2628 15.0338C10.2628 14.3138 11.7197 13.5605 11.7197 13.5605C11.7197 13.5605 13.1727 14.3258 13.1727 15.0338L12.0506 15.7871C12.0506 15.7871 13.6781 18.7183 13.6781 20.9329C13.6781 21.28 9.76139 21.1997 9.76139 20.9089Z" fill="#FDFDFD"/>
</symbol>

<symbol id="user-role" width="25" height="24" viewBox="0 0 25 24" fill="none">
<path d="M16 4C17.0609 4 18.0783 4.47411 18.8284 5.31802C19.5786 6.16193 20 7.30653 20 8.5C20 9.69347 19.5786 10.8381 18.8284 11.682C18.0783 12.5259 17.0609 13 16 13C14.9391 13 13.9217 12.5259 13.1716 11.682C12.4214 10.8381 12 9.69347 12 8.5C12 7.30653 12.4214 6.16193 13.1716 5.31802C13.9217 4.47411 14.9391 4 16 4ZM16 6.1375C15.443 6.1375 14.9089 6.38641 14.5151 6.82946C14.1212 7.27251 13.9 7.87343 13.9 8.5C13.9 9.12657 14.1212 9.72749 14.5151 10.1705C14.9089 10.6136 15.443 10.8625 16 10.8625C16.557 10.8625 17.0911 10.6136 17.4849 10.1705C17.8788 9.72749 18.1 9.12657 18.1 8.5C18.1 7.87343 17.8788 7.27251 17.4849 6.82946C17.0911 6.38641 16.557 6.1375 16 6.1375ZM16 14.125C18.67 14.125 24 15.6213 24 18.625V22H8V18.625C8 15.6213 13.33 14.125 16 14.125ZM16 16.2625C13 16.2625 9.9 17.905 9.9 18.625V19.8625H22.1V18.625C22.1 17.905 18.97 16.2625 16 16.2625ZM6 14.44L3.5 16.1163L4.18 12.955L2 10.84L4.87 10.5588L6 7.58875L7.11 10.5588L10 10.84L7.8 12.955L8.45 16.1163L6 14.44Z" fill="#FDFDFD"/>
</symbol>

<symbol id="shield" width="19" height="22" viewBox="0 0 19 22" fill="none">
<path d="M8.2194 0.61026C8.32984 0.61026 8.44107 0.619982 8.55307 0.639427C8.66507 0.658871 8.77396 0.689982 8.87973 0.73276L15.1611 3.06609C15.522 3.21076 15.8163 3.44293 16.0442 3.76259C16.2721 4.08304 16.3861 4.44315 16.3861 4.84293V9.40926C16.3861 9.57415 16.3301 9.71259 16.2181 9.82459C16.1061 9.93659 15.9672 9.99259 15.8016 9.99259C15.6359 9.99259 15.4975 9.93659 15.3862 9.82459C15.275 9.71259 15.2194 9.57415 15.2194 9.40926V4.82776C15.2194 4.67765 15.1782 4.54309 15.0957 4.42409C15.0141 4.30432 14.8982 4.21448 14.7481 4.15459L8.46673 1.82126C8.39207 1.79093 8.30962 1.77576 8.2194 1.77576C8.12918 1.77576 8.04673 1.79093 7.97207 1.82126L1.69073 4.15459C1.54062 4.21448 1.42473 4.30393 1.34307 4.42293C1.26062 4.54426 1.2194 4.67959 1.2194 4.82893V9.83976C1.2194 10.9613 1.38273 12.0494 1.7094 13.1041C2.03607 14.1588 2.48873 15.1271 3.0674 16.0091C3.64607 16.8911 4.32351 17.6638 5.09973 18.3273C5.87596 18.9907 6.71246 19.5079 7.60923 19.8789C7.76634 19.9458 7.88184 20.0539 7.95573 20.2033C8.02962 20.3526 8.03934 20.5043 7.9849 20.6583C7.92112 20.8231 7.8099 20.934 7.65123 20.9908C7.49179 21.0475 7.3409 21.0429 7.19857 20.9768C5.01612 20.0528 3.27973 18.5555 1.9894 16.4851C0.69829 14.4154 0.0527344 12.2003 0.0527344 9.83976V4.84293C0.0527344 4.44315 0.166679 4.08304 0.394568 3.76259C0.621679 3.44215 0.916068 3.20998 1.27773 3.06609L7.56023 0.73276C7.6699 0.68376 7.77957 0.650705 7.88923 0.633594C7.99968 0.618038 8.10973 0.61026 8.2194 0.61026ZM14.0527 21.3898C12.7531 21.3898 11.6506 20.9371 10.7452 20.0318C9.83912 19.1249 9.38607 18.022 9.38607 16.7231C9.38607 15.4242 9.83912 14.3217 10.7452 13.4156C11.6513 12.5095 12.7538 12.0564 14.0527 12.0564C15.3516 12.0564 16.4545 12.5095 17.3614 13.4156C18.2683 14.3217 18.721 15.4242 18.7194 16.7231C18.7178 18.022 18.2652 19.1249 17.3614 20.0318C16.4576 20.9387 15.3547 21.3913 14.0527 21.3898ZM13.6036 17.1711V19.1906C13.6036 19.3104 13.6487 19.4154 13.7389 19.5056C13.8283 19.595 13.933 19.6398 14.0527 19.6398C14.1725 19.6398 14.2775 19.595 14.3677 19.5056C14.458 19.4161 14.5023 19.3111 14.5007 19.1906V17.1723H16.5202C16.64 17.1723 16.745 17.1271 16.8352 17.0369C16.9247 16.9475 16.9694 16.8429 16.9694 16.7231C16.9694 16.6033 16.9247 16.4983 16.8352 16.4081C16.7458 16.3179 16.6408 16.2735 16.5202 16.2751H14.5019V14.2556C14.5019 14.1358 14.4568 14.0308 14.3666 13.9406C14.2771 13.8511 14.1725 13.8064 14.0527 13.8064C13.933 13.8064 13.828 13.8515 13.7377 13.9418C13.6491 14.0312 13.6047 14.1358 13.6047 14.2556V16.2739H11.5852C11.4655 16.2739 11.3605 16.319 11.2702 16.4093C11.1808 16.4987 11.1361 16.6033 11.1361 16.7231C11.1361 16.8429 11.1812 16.9479 11.2714 17.0381C11.3608 17.1268 11.4655 17.1711 11.5852 17.1711H13.6036Z" fill="#FDFDFD"/>
</symbol>

<symbol id="lock" width="25" height="24" viewBox="0 0 25 24" fill="none">
<path d="M19.0527 13.6667V12.3333C19.0527 11.9797 18.9123 11.6406 18.6622 11.3905C18.4122 11.1405 18.073 11 17.7194 11H4.38607C4.03245 11 3.69331 11.1405 3.44326 11.3905C3.19321 11.6406 3.05273 11.9797 3.05273 12.3333V20.3333C3.05273 20.687 3.19321 21.0261 3.44326 21.2761C3.69331 21.5262 4.03245 21.6667 4.38607 21.6667H17.7194C18.073 21.6667 18.4122 21.5262 18.6622 21.2761C18.9123 21.0261 19.0527 20.687 19.0527 20.3333V19M19.0527 13.6667H13.7194C13.0122 13.6667 12.3339 13.9476 11.8338 14.4477C11.3337 14.9478 11.0527 15.6261 11.0527 16.3333C11.0527 17.0406 11.3337 17.7189 11.8338 18.219C12.3339 18.719 13.0122 19 13.7194 19H19.0527M19.0527 13.6667C19.76 13.6667 20.4383 13.9476 20.9384 14.4477C21.4384 14.9478 21.7194 15.6261 21.7194 16.3333C21.7194 17.0406 21.4384 17.7189 20.9384 18.219C20.4383 18.719 19.76 19 19.0527 19M7.05273 11V7C7.05273 5.93913 7.47416 4.92172 8.22431 4.17157C8.97445 3.42143 9.99187 3 11.0527 3C12.1136 3 13.131 3.42143 13.8812 4.17157C14.6313 4.92172 15.0527 5.93913 15.0527 7V11M18.3861 16.3333H19.7194M15.7194 16.3333H17.0527M13.0527 16.3333H14.3861" stroke="#FDFDFD" stroke-width="2"/>
</symbol>

<symbol id="pen" width="25" height="24" viewBox="0 0 25 24" fill="none">
<path d="M5.05273 19H6.47773L16.2527 9.225L14.8277 7.8L5.05273 17.575V19ZM3.05273 21V16.75L16.2527 3.575C16.4527 3.39167 16.6737 3.25 16.9157 3.15C17.1577 3.05 17.4117 3 17.6777 3C17.9437 3 18.2021 3.05 18.4527 3.15C18.7034 3.25 18.9201 3.4 19.1027 3.6L20.4777 5C20.6777 5.18333 20.8237 5.4 20.9157 5.65C21.0077 5.9 21.0534 6.15 21.0527 6.4C21.0527 6.66667 21.0071 6.921 20.9157 7.163C20.8244 7.405 20.6784 7.62567 20.4777 7.825L7.30273 21H3.05273ZM15.5277 8.525L14.8277 7.8L16.2527 9.225L15.5277 8.525Z" fill="#FDFDFD"/>
</symbol>

<symbol id="user" width="25" height="24" viewBox="0 0 25 24" fill="none">
<g clip-path="url(#clip0_428_23983)">
<path d="M9.12695 16.25L12.052 14.475L14.977 16.25L14.202 12.925L16.802 10.675L13.377 10.4L12.052 7.25001L10.727 10.4L7.30195 10.675L9.90195 12.925L9.12695 16.25ZM12.052 23.3L8.70195 20H4.05195V15.35L0.751953 12L4.05195 8.65001V4.00001H8.70195L12.052 0.700012L15.402 4.00001H20.052V8.65001L23.352 12L20.052 15.35V20H15.402L12.052 23.3ZM12.052 20.5L14.552 18H18.052V14.5L20.552 12L18.052 9.50001V6.00001H14.552L12.052 3.50001L9.55195 6.00001H6.05195V9.50001L3.55195 12L6.05195 14.5V18H9.55195L12.052 20.5Z" fill="#FDFDFD"/>
</g>
<defs>
<clipPath>
<rect width="24" height="24" fill="white" transform="translate(0.0527344)"/>
</clipPath>
</defs>
</symbol>

<symbol id="blocked-red" width="25" height="24" viewBox="0 0 25 24" fill="none">
<g clip-path="url(#clip0_428_24027)">
<path d="M6.75323 0.33C6.96401 0.118961 7.24997 0.000262578 7.54823 0L16.5572 0C16.8557 0 17.1407 0.1185 17.3522 0.33L23.7227 6.7005C23.9342 6.9105 24.0527 7.197 24.0527 7.4955V16.5045C24.0525 16.8028 23.9338 17.0887 23.7227 17.2995L17.3522 23.67C17.1415 23.881 16.8555 23.9997 16.5572 24H7.54823C7.24997 23.9997 6.96401 23.881 6.75323 23.67L0.382734 17.2995C0.171696 17.0887 0.052997 16.8028 0.0527344 16.5045L0.0527344 7.4955C0.0527344 7.197 0.171234 6.912 0.382734 6.7005L6.75323 0.33ZM8.01323 2.25L2.30273 7.962V16.038L8.01473 21.75H16.0907L21.8027 16.038V7.962L16.0907 2.25H8.01323ZM6.05273 11.625C6.05273 11.3266 6.17126 11.0405 6.38224 10.8295C6.59322 10.6185 6.87937 10.5 7.17773 10.5H16.9277C17.2261 10.5 17.5123 10.6185 17.7232 10.8295C17.9342 11.0405 18.0527 11.3266 18.0527 11.625C18.0527 11.9234 17.9342 12.2095 17.7232 12.4205C17.5123 12.6315 17.2261 12.75 16.9277 12.75H7.17773C6.87937 12.75 6.59322 12.6315 6.38224 12.4205C6.17126 12.2095 6.05273 11.9234 6.05273 11.625Z" fill="#FDFDFD"/>
</g>
<defs>
<clipPath>
<rect width="24" height="24" fill="white" transform="translate(0.0527344)"/>
</clipPath>
</defs>
</symbol>

<symbol id="ban" width="25" height="24" viewBox="0 0 25 24" fill="none">
<path d="M12.0527 0C18.6527 0 24.0527 5.4 24.0527 12C24.0527 18.6 18.6527 24 12.0527 24C5.45273 24 0.0527344 18.6 0.0527344 12C0.0527344 5.4 5.45273 0 12.0527 0ZM12.0527 2.4C9.77273 2.4 7.73273 3.12 6.17273 4.44L19.6127 17.88C20.8127 16.2 21.6527 14.16 21.6527 12C21.6527 6.72 17.3327 2.4 12.0527 2.4ZM17.9327 19.56L4.49273 6.12C3.17273 7.68 2.45273 9.72 2.45273 12C2.45273 17.28 6.77273 21.6 12.0527 21.6C14.3327 21.6 16.3727 20.88 17.9327 19.56Z" fill="#FDFDFD"/>
</symbol>

<symbol id="trash" width="25" height="24" viewBox="0 0 25 24" fill="none">
<path d="M4.53731 24C3.77503 24 3.12303 23.759 2.58131 23.2771C2.0396 22.7952 1.76817 22.2174 1.76703 21.5437V2.69372H0.909888C0.66646 2.69372 0.463032 2.62067 0.299603 2.47457C0.136175 2.32847 0.053889 2.14737 0.0527461 1.93126C0.0516033 1.71516 0.133889 1.53456 0.299603 1.38947C0.465317 1.24439 0.668746 1.17185 0.909888 1.17185H6.90988C6.90988 0.857324 7.04131 0.583386 7.30417 0.350032C7.56702 0.116677 7.8756 0 8.22988 0H15.8756C16.2299 0 16.5384 0.116677 16.8013 0.350032C17.0642 0.583386 17.1956 0.857324 17.1956 1.17185H23.1956C23.439 1.17185 23.6424 1.2449 23.8059 1.391C23.9693 1.5371 24.0516 1.7182 24.0527 1.93431C24.0539 2.15041 23.9716 2.33101 23.8059 2.47609C23.6402 2.62118 23.4367 2.69372 23.1956 2.69372H22.3384V21.5422C22.3384 22.2179 22.067 22.7962 21.5242 23.2771C20.9813 23.758 20.3299 23.999 19.5699 24H4.53731ZM20.6242 2.69372H3.48131V21.5422C3.48131 21.8151 3.58017 22.0393 3.77789 22.2148C3.9756 22.3904 4.22874 22.4781 4.53731 22.4781H19.5699C19.8773 22.4781 20.1299 22.3904 20.3276 22.2148C20.5253 22.0393 20.6242 21.8151 20.6242 21.5422V2.69372ZM9.15217 19.4344C9.39559 19.4344 9.59959 19.3613 9.76417 19.2152C9.92874 19.0691 10.0105 18.8885 10.0093 18.6734V6.49841C10.0093 6.28231 9.92702 6.10171 9.76245 5.95663C9.59788 5.81154 9.39388 5.73849 9.15045 5.73748C8.90702 5.73646 8.7036 5.80951 8.54017 5.95663C8.37674 6.10374 8.29502 6.28434 8.29502 6.49841V18.6734C8.29502 18.8895 8.37731 19.0701 8.54188 19.2152C8.70645 19.3613 8.90988 19.4344 9.15217 19.4344ZM14.955 19.4344C15.1984 19.4344 15.4019 19.3613 15.5653 19.2152C15.7287 19.0691 15.8104 18.8885 15.8104 18.6734V6.49841C15.8104 6.28231 15.7282 6.10171 15.5636 5.95663C15.399 5.81053 15.1956 5.73748 14.9533 5.73748C14.7099 5.73748 14.5059 5.81053 14.3413 5.95663C14.1767 6.10273 14.095 6.28332 14.0962 6.49841V18.6734C14.0962 18.8895 14.1784 19.0701 14.343 19.2152C14.5076 19.3603 14.7116 19.4334 14.955 19.4344Z" fill="#FDFDFD"/>
</symbol>

<symbol id="linkedin2" width="26" height="26" viewBox="0 0 26 26" fill="none">
<path d="M15.293 9.84421C14.7644 9.84421 14.3731 9.97752 14.0667 10.1459C14.0176 9.97128 13.8562 9.84343 13.666 9.88163H11.3397C11.1097 9.84343 10.9234 10.0297 10.9943 10.2714V18.847C10.9234 19.0652 11.1097 19.2523 11.3397 19.2367H13.666C13.896 19.2523 14.0823 19.0652 14.0823 18.8353L14.0815 13.6525C14.0807 13.6502 14.0722 13.4023 14.2289 13.2315C14.3544 13.0959 14.5703 13.0265 14.8689 13.0265C15.3663 13.0265 15.5877 13.23 15.6703 13.6853V18.8353C15.5885 19.0652 15.7748 19.2523 16.0048 19.2367H18.4566C18.6866 19.2523 18.8729 19.0652 18.7903 18.8353V13.5122C18.8721 10.8054 16.9442 9.84421 15.293 9.84421ZM18.0395 18.4572H16.4211V13.6853C16.4211 12.7646 15.8262 12.1939 14.8697 12.1939C14.3286 12.1939 13.9077 12.3529 13.6177 12.6663C13.2146 13.1029 13.2458 13.6564 13.3323 13.7796V18.4572H11.756V10.6768H13.2497V10.9388C13.2491 11.0168 13.2705 11.0934 13.3115 11.1598C13.3525 11.2262 13.4113 11.2797 13.4814 11.3142C13.5514 11.3486 13.6297 11.3626 13.7073 11.3545C13.7849 11.3464 13.8587 11.3166 13.9201 11.2685L14.0293 11.1843C14.345 10.9356 14.6717 10.6776 15.2938 10.6776C15.9377 10.6776 18.0403 10.8826 18.0403 13.513L18.0395 18.4572ZM8.65477 5.95715C7.78006 5.95715 7.06907 6.66814 7.06907 7.54285C7.06907 8.41755 7.78006 9.12854 8.65477 9.12854C9.52947 9.12854 10.2405 8.41755 10.2405 7.54285C10.2405 6.66814 9.52947 5.95715 8.65477 5.95715ZM8.65477 8.29593C8.24002 8.29593 7.90168 7.95759 7.90168 7.54285C7.90168 7.1281 8.24002 6.78976 8.65477 6.78976C9.06951 6.78976 9.40786 7.1281 9.40786 7.54285C9.40786 7.95759 9.06951 8.29593 8.65477 8.29593ZM9.76803 9.84343H7.45419C7.22421 9.84343 7.03789 10.0297 7.09558 10.2714V18.847C7.03789 19.0652 7.22421 19.2523 7.45419 19.2367H9.76803C9.99801 19.2523 10.1843 19.0652 10.1843 18.8353V10.2597C10.1843 10.1493 10.1405 10.0434 10.0624 9.96536C9.98433 9.88729 9.87844 9.84343 9.76803 9.84343ZM9.43436 18.4572H7.8705V10.6768H9.43436V18.4572Z" fill="#FDFDFD"/>
<path d="M12.5527 0.5C5.65957 0.5 0.0527344 6.10684 0.0527344 13C0.0527344 19.8932 5.65957 25.5 12.5527 25.5C19.4459 25.5 25.0527 19.8932 25.0527 13C25.0527 6.10684 19.4459 0.5 12.5527 0.5ZM12.5527 24.6674C6.11953 24.6674 0.88534 19.4332 0.88534 13C0.88534 6.5668 6.11953 1.33261 12.5527 1.33261C18.9859 1.33261 24.2201 6.5668 24.2201 13C24.2201 19.4332 18.9859 24.6674 12.5527 24.6674Z" fill="#FDFDFD"/>
</symbol>

<symbol id="arrow" width="26" height="26" viewBox="0 0 26 26" fill="none">
<path d="M12.5527 0.5C5.66078 0.5 0.0527344 6.10684 0.0527344 13C0.0527344 19.8932 5.66078 25.5 12.5527 25.5C19.4447 25.5 25.0527 19.8932 25.0527 13C25.0527 6.10684 19.4447 0.5 12.5527 0.5ZM12.5527 24.6674C6.11993 24.6674 0.886847 19.4332 0.886847 13C0.886847 6.5668 6.11993 1.33261 12.5527 1.33261C18.9855 1.33261 24.2186 6.5668 24.2186 13C24.2186 19.4332 18.9855 24.6674 12.5527 24.6674Z" fill="#FDFDFD"/>
<path d="M19.4081 9.13789C19.4946 8.97789 19.5659 8.81005 19.6209 8.63662C19.6464 8.55619 19.6469 8.46992 19.6223 8.3892C19.5978 8.30847 19.5494 8.23709 19.4834 8.18448C19.4174 8.13186 19.3371 8.10049 19.2529 8.0945C19.1688 8.08851 19.0848 8.10819 19.012 8.15093C18.6128 8.38859 18.1803 8.56542 17.7289 8.6756C17.1811 8.18109 16.4697 7.90698 15.7317 7.90614C15.3308 7.90645 14.9341 7.98771 14.5654 8.14505C14.1966 8.3024 13.8634 8.53258 13.5858 8.82181C13.3082 9.11104 13.0918 9.45336 12.9496 9.82824C12.8075 10.2031 12.7425 10.6029 12.7585 11.0035C11.0053 10.7828 9.40436 9.8956 8.28785 8.52591C8.24506 8.47403 8.19039 8.43323 8.12847 8.40699C8.06655 8.38076 7.99922 8.36986 7.93218 8.37521C7.86515 8.38057 7.8004 8.40203 7.74343 8.43776C7.68646 8.4735 7.63896 8.52246 7.60496 8.58049C7.34908 9.01927 7.20998 9.51634 7.20098 10.0242C7.19197 10.5321 7.31335 11.0338 7.55351 11.4814C7.49453 11.4908 7.43791 11.5114 7.38669 11.5422C7.32361 11.5823 7.27168 11.6377 7.23571 11.7033C7.19973 11.7688 7.18088 11.8424 7.18089 11.9171C7.18089 12.802 7.57456 13.6143 8.20911 14.1663L8.18183 14.1936C8.13365 14.2476 8.10051 14.3133 8.08573 14.3842C8.07096 14.4551 8.07506 14.5286 8.09764 14.5974C8.23015 15.0101 8.45115 15.3889 8.74521 15.7074C9.03927 16.0258 9.3993 16.2762 9.80016 16.4411C8.9767 16.8431 8.05504 16.9997 7.14503 16.8925C7.05149 16.883 6.95743 16.9047 6.87758 16.9544C6.79774 17.0041 6.73662 17.0788 6.70381 17.1669C6.6723 17.2557 6.67171 17.3525 6.70213 17.4417C6.73255 17.5308 6.79221 17.6071 6.87141 17.6581C8.10854 18.4522 9.54778 18.874 11.0178 18.8735C15.8354 18.8735 18.715 14.9599 18.715 11.1765L18.7143 11.0487C19.1813 10.6844 19.5869 10.2474 19.9155 9.75455C19.9653 9.68007 19.9898 9.59153 19.9854 9.50204C19.9809 9.41255 19.9478 9.32688 19.8908 9.2577C19.8339 9.18852 19.7562 9.13951 19.6693 9.11793C19.5823 9.09635 19.4907 9.10335 19.4081 9.13789ZM18.0477 10.5061C17.9914 10.547 17.9462 10.6013 17.9159 10.664C17.8857 10.7267 17.8716 10.7959 17.8747 10.8655C17.8794 10.9689 17.8817 11.0723 17.8817 11.1758C17.8817 14.5498 15.3147 18.0401 11.0186 18.0401C10.2524 18.0398 9.49172 17.9112 8.76804 17.6596C9.63433 17.4928 10.4482 17.1212 11.1418 16.576C11.2092 16.5228 11.2586 16.45 11.2832 16.3677C11.3078 16.2854 11.3063 16.1974 11.279 16.116C11.2517 16.0345 11.1999 15.9634 11.1307 15.9125C11.0615 15.8616 10.9782 15.8333 10.8923 15.8315C10.5562 15.8252 10.2262 15.7399 9.9291 15.5825C9.632 15.4252 9.37607 15.2001 9.18198 14.9256C9.37947 14.9121 9.57227 14.8799 9.7604 14.8289C9.85133 14.8046 9.93132 14.7502 9.98733 14.6745C10.0433 14.5989 10.0721 14.5065 10.0688 14.4124C10.0656 14.3183 10.0305 14.2281 9.96941 14.1565C9.9083 14.0849 9.82473 14.0361 9.73234 14.0181C9.35269 13.941 9.00116 13.762 8.7154 13.5004C8.42964 13.2388 8.22041 12.9044 8.11011 12.533C8.31799 12.5855 8.52898 12.6154 8.7431 12.6227C8.92629 12.6219 9.09623 12.5096 9.15314 12.3334C9.21005 12.1573 9.14301 11.9631 8.98788 11.8602C8.62142 11.6155 8.33926 11.2638 8.17983 10.853C8.02039 10.4422 7.99142 9.99221 8.09686 9.56433C9.45082 10.954 11.2793 11.7815 13.2169 11.8813C13.3541 11.8821 13.4742 11.8329 13.5576 11.7324C13.641 11.6318 13.6729 11.4985 13.6433 11.3707C13.5367 10.9115 13.5844 10.4299 13.779 10.0006C13.9736 9.57126 14.3043 9.21803 14.7199 8.99557C15.1355 8.77312 15.6128 8.69385 16.0779 8.77003C16.5431 8.84621 16.9702 9.07359 17.2931 9.41699C17.3418 9.46833 17.4025 9.5066 17.4698 9.52826C17.5371 9.54993 17.6088 9.55429 17.6782 9.54094C17.8071 9.51496 17.9342 9.48507 18.0594 9.45129C18.0025 9.49317 17.9437 9.53245 17.8833 9.56901C17.8024 9.61853 17.7409 9.69411 17.7087 9.78331C17.6766 9.8725 17.6758 9.96998 17.7065 10.0597C17.7372 10.1494 17.7975 10.2259 17.8775 10.2768C17.9576 10.3276 18.0525 10.3496 18.1467 10.3392L18.2886 10.3213C18.2104 10.3855 18.13 10.4471 18.0477 10.5061Z" fill="#FDFDFD"/>
</symbol>

<symbol id="xclose" width="18" height="18" viewBox="0 0 18 18" fill="none">
<path d="M1 1L17 17M1 17L17 1" stroke="#24448A" stroke-linecap="round" stroke-linejoin="round"/>
</symbol>

<symbol id="instagram" width="26" height="26" viewBox="0 0 26 26" fill="none">
<path d="M12.5266 0.47345C5.61875 0.47345 0 6.0922 0 13C0 19.9078 5.61875 25.5266 12.5266 25.5266C19.4344 25.5266 25.0531 19.9078 25.0531 13C25.0531 6.0922 19.4344 0.47345 12.5266 0.47345ZM12.5266 24.6922C6.07969 24.6922 0.834375 19.4469 0.834375 13C0.834375 6.55314 6.07969 1.30782 12.5266 1.30782C18.9734 1.30782 24.2188 6.55314 24.2188 13C24.2188 19.4469 18.9734 24.6922 12.5266 24.6922Z" fill="#FDFDFD"/>
<path d="M12.5266 9.61766C11.8576 9.61766 11.2037 9.81603 10.6474 10.1877C10.0912 10.5593 9.65768 11.0876 9.40168 11.7056C9.14567 12.3237 9.07869 13.0038 9.2092 13.6599C9.33971 14.316 9.66185 14.9187 10.1349 15.3917C10.6079 15.8647 11.2106 16.1869 11.8667 16.3174C12.5228 16.4479 13.2029 16.3809 13.8209 16.1249C14.439 15.8689 14.9672 15.4354 15.3389 14.8791C15.7105 14.3229 15.9089 13.669 15.9089 13C15.9077 12.1033 15.551 11.2437 14.917 10.6096C14.2829 9.97556 13.4233 9.61883 12.5266 9.61766ZM12.5266 15.5C12.0321 15.5 11.5488 15.3534 11.1376 15.0787C10.7265 14.804 10.4061 14.4135 10.2169 13.9567C10.0276 13.4999 9.97814 12.9972 10.0746 12.5123C10.1711 12.0273 10.4092 11.5819 10.7588 11.2322C11.1084 10.8826 11.5539 10.6445 12.0388 10.548C12.5238 10.4516 13.0265 10.5011 13.4833 10.6903C13.9401 10.8795 14.3305 11.2 14.6052 11.6111C14.8799 12.0222 15.0266 12.5056 15.0266 13C15.0266 13.6631 14.7632 14.2989 14.2943 14.7678C13.8255 15.2366 13.1896 15.5 12.5266 15.5ZM16.056 5.50001H8.99715C7.94444 5.50118 6.93519 5.91988 6.19081 6.66426C5.44643 7.40864 5.02773 8.41789 5.02656 9.4706V16.5294C5.02773 17.5821 5.44643 18.5914 6.19081 19.3358C6.93519 20.0801 7.94444 20.4988 8.99715 20.5H16.056C17.1087 20.4988 18.1179 20.0801 18.8623 19.3358C19.6067 18.5914 20.0254 17.5821 20.0266 16.5294V9.4706C20.0254 8.41789 19.6067 7.40864 18.8623 6.66426C18.1179 5.91988 17.1087 5.50118 16.056 5.50001ZM19.1442 16.5294C19.1442 17.3485 18.8188 18.134 18.2397 18.7131C17.6605 19.2923 16.875 19.6177 16.056 19.6177H8.99715C8.1781 19.6177 7.39259 19.2923 6.81344 18.7131C6.23428 18.134 5.90892 17.3485 5.90892 16.5294V9.4706C5.90892 8.65155 6.23428 7.86604 6.81344 7.28689C7.39259 6.70773 8.1781 6.38237 8.99715 6.38237H16.056C16.875 6.38237 17.6605 6.70773 18.2397 7.28689C18.8188 7.86604 19.1442 8.65155 19.1442 9.4706V16.5294ZM17.0854 9.17648C17.0854 9.32191 17.0423 9.46407 16.9615 9.58499C16.8807 9.70591 16.7658 9.80015 16.6315 9.85581C16.4971 9.91146 16.3493 9.92602 16.2066 9.89765C16.064 9.86928 15.933 9.79925 15.8302 9.69641C15.7273 9.59358 15.6573 9.46257 15.6289 9.31993C15.6006 9.1773 15.6151 9.02946 15.6708 8.8951C15.7264 8.76074 15.8207 8.6459 15.9416 8.56511C16.0625 8.48431 16.2047 8.44119 16.3501 8.44119C16.5451 8.44119 16.7321 8.51866 16.87 8.65655C17.0079 8.79445 17.0854 8.98147 17.0854 9.17648Z" fill="#FDFDFD"/>
</symbol>

<symbol id="facebook" width="25" height="26" viewBox="0 0 25 26" fill="none">
<path d="M12.5 0.5C5.60684 0.5 0 6.10684 0 13C0 19.8932 5.60684 25.5 12.5 25.5C19.3932 25.5 25 19.8932 25 13C25 6.10684 19.3932 0.5 12.5 0.5ZM12.5 24.6674C6.0668 24.6674 0.832606 19.4332 0.832606 13C0.832606 6.5668 6.0668 1.33261 12.5 1.33261C18.9332 1.33261 24.1674 6.5668 24.1674 13C24.1674 19.4332 18.9332 24.6674 12.5 24.6674Z" fill="#FDFDFD"/>
<path d="M11.3401 9.33038V11.1553H10.1612V13.3858H11.3401V20.0163H13.7635V13.3858H15.3891C15.3891 13.3858 15.5424 12.3163 15.616 11.146H13.7728V9.62194C13.7728 9.39266 14.0371 9.08652 14.2991 9.08652H15.6184V6.76325H13.8231C11.2805 6.76325 11.3401 8.9964 11.3401 9.33038Z" fill="#FDFDFD"/>
</symbol>

<symbol id="arrow-left" width="24" height="24" viewBox="0 0 24 24" fill="none">
<path d="M19.4688 11.9685H4.46875M9.34375 17.2185L4.09375 11.9685L9.34375 6.71851" stroke="white" stroke-width="2"/>
</symbol>

<symbol id="linkedin" width="26" height="26" viewBox="0 0 26 26" fill="none">
<path d="M15.293 9.84421C14.7644 9.84421 14.3731 9.97752 14.0667 10.1459C14.0176 9.97128 13.8562 9.84343 13.666 9.88163H11.3397C11.1097 9.84343 10.9234 10.0297 10.9943 10.2714V18.847C10.9234 19.0652 11.1097 19.2523 11.3397 19.2367H13.666C13.896 19.2523 14.0823 19.0652 14.0823 18.8353L14.0815 13.6525C14.0807 13.6502 14.0722 13.4023 14.2289 13.2315C14.3544 13.0959 14.5703 13.0265 14.8689 13.0265C15.3663 13.0265 15.5877 13.23 15.6703 13.6853V18.8353C15.5885 19.0652 15.7748 19.2523 16.0048 19.2367H18.4566C18.6866 19.2523 18.8729 19.0652 18.7903 18.8353V13.5122C18.8721 10.8054 16.9442 9.84421 15.293 9.84421ZM18.0395 18.4572H16.4211V13.6853C16.4211 12.7646 15.8262 12.1939 14.8697 12.1939C14.3286 12.1939 13.9077 12.3529 13.6177 12.6663C13.2146 13.1029 13.2458 13.6564 13.3323 13.7796V18.4572H11.756V10.6768H13.2497V10.9388C13.2491 11.0168 13.2705 11.0934 13.3115 11.1598C13.3525 11.2262 13.4113 11.2797 13.4814 11.3142C13.5514 11.3486 13.6297 11.3626 13.7073 11.3545C13.7849 11.3464 13.8587 11.3166 13.9201 11.2685L14.0293 11.1843C14.345 10.9356 14.6717 10.6776 15.2938 10.6776C15.9377 10.6776 18.0403 10.8826 18.0403 13.513L18.0395 18.4572ZM8.65477 5.95715C7.78006 5.95715 7.06907 6.66814 7.06907 7.54285C7.06907 8.41755 7.78006 9.12854 8.65477 9.12854C9.52947 9.12854 10.2405 8.41755 10.2405 7.54285C10.2405 6.66814 9.52947 5.95715 8.65477 5.95715ZM8.65477 8.29593C8.24002 8.29593 7.90168 7.95759 7.90168 7.54285C7.90168 7.1281 8.24002 6.78976 8.65477 6.78976C9.06951 6.78976 9.40786 7.1281 9.40786 7.54285C9.40786 7.95759 9.06951 8.29593 8.65477 8.29593ZM9.76803 9.84343H7.45419C7.22421 9.84343 7.03789 10.0297 7.09558 10.2714V18.847C7.03789 19.0652 7.22421 19.2523 7.45419 19.2367H9.76803C9.99801 19.2523 10.1843 19.0652 10.1843 18.8353V10.2597C10.1843 10.1493 10.1405 10.0434 10.0624 9.96536C9.98433 9.88729 9.87844 9.84343 9.76803 9.84343ZM9.43436 18.4572H7.8705V10.6768H9.43436V18.4572Z" fill="#FDFDFD"/>
<path d="M12.5527 0.5C5.65957 0.5 0.0527344 6.10684 0.0527344 13C0.0527344 19.8932 5.65957 25.5 12.5527 25.5C19.4459 25.5 25.0527 19.8932 25.0527 13C25.0527 6.10684 19.4459 0.5 12.5527 0.5ZM12.5527 24.6674C6.11953 24.6674 0.88534 19.4332 0.88534 13C0.88534 6.5668 6.11953 1.33261 12.5527 1.33261C18.9859 1.33261 24.2201 6.5668 24.2201 13C24.2201 19.4332 18.9859 24.6674 12.5527 24.6674Z" fill="#FDFDFD"/>
</symbol>

</svg>