<svg xmlns="http://www.w3.org/2000/svg" aria-hidden="true" style="position:absolute;width:0;height:0;overflow:hidden">
    <defs>
        <symbol id="eye-close" viewBox="0 0 23 18">
            <path d="M19.9339 18C19.8332 18.0002 19.7335 17.9808 19.6405 17.943C19.5474 17.9053 19.463 17.8499 19.392 17.78L2.52563 1.26753C2.38793 1.12563 2.31229 0.936676 2.31485 0.740957C2.31741 0.545238 2.39796 0.358241 2.53933 0.219836C2.68071 0.0814301 2.87171 0.0025674 3.07162 6.1585e-05C3.27154 -0.00244423 3.46454 0.0716053 3.60949 0.206422L20.4758 16.7189C20.583 16.8238 20.6559 16.9576 20.6855 17.1031C20.715 17.2486 20.6998 17.3995 20.6418 17.5366C20.5838 17.6737 20.4856 17.7909 20.3596 17.8734C20.2336 17.9559 20.0855 17.9999 19.9339 18ZM11.4844 14.9977C9.49641 14.9977 7.5793 14.4217 5.7863 13.2855C4.15381 12.2535 2.68423 10.7753 1.53617 9.01666V9.01291C2.49161 7.67268 3.53809 6.53932 4.66219 5.62551C4.67236 5.61719 4.68066 5.60689 4.68655 5.59527C4.69245 5.58365 4.69582 5.57095 4.69645 5.55799C4.69708 5.54503 4.69496 5.53208 4.69022 5.51996C4.68548 5.50785 4.67822 5.49682 4.6689 5.48759L3.71442 4.55454C3.69746 4.5378 3.67468 4.52793 3.65062 4.52688C3.62656 4.52584 3.60298 4.53371 3.58457 4.54892C2.39051 5.53403 1.28222 6.74244 0.274554 8.15726C0.101188 8.40087 0.00570835 8.68944 0.000248027 8.98629C-0.0052123 9.28315 0.0795932 9.5749 0.243888 9.82446C1.50934 11.7633 3.138 13.3962 4.95304 14.546C6.99665 15.8421 9.19598 16.4989 11.4844 16.4989C12.7197 16.4951 13.9462 16.2959 15.1164 15.9087C15.1319 15.9036 15.1457 15.8947 15.1567 15.8829C15.1676 15.8711 15.1753 15.8567 15.179 15.8411C15.1827 15.8256 15.1823 15.8094 15.1778 15.794C15.1733 15.7787 15.1649 15.7647 15.1533 15.7535L14.1193 14.7411C14.0955 14.7184 14.0661 14.7021 14.0339 14.6939C14.0017 14.6857 13.9679 14.6858 13.9358 14.6942C13.135 14.8961 12.3114 14.9981 11.4844 14.9977ZM22.7532 8.17696C21.4854 6.25739 19.8405 4.62679 17.9967 3.46106C15.9569 2.17009 13.7048 1.48754 11.4844 1.48754C10.2623 1.48963 9.0492 1.69309 7.89602 2.0894C7.88066 2.09464 7.86691 2.10362 7.85607 2.11549C7.84523 2.12737 7.83765 2.14175 7.83406 2.15728C7.83046 2.17281 7.83097 2.18899 7.83552 2.20428C7.84007 2.21957 7.84853 2.23347 7.86009 2.24468L8.89267 3.2556C8.91671 3.27873 8.94655 3.29525 8.9792 3.30348C9.01184 3.31172 9.04612 3.31138 9.07858 3.30251C9.86295 3.09477 10.6719 2.98925 11.4844 2.98868C13.4341 2.98868 15.3455 3.57177 17.1648 4.72436C18.828 5.77515 20.3148 7.25189 21.4657 8.99321L21.4671 8.99696L21.4657 9.00071C20.6303 10.2884 19.5936 11.4397 18.3934 12.4125C18.3831 12.4208 18.3747 12.4311 18.3687 12.4427C18.3627 12.4544 18.3593 12.4671 18.3586 12.4801C18.358 12.4932 18.3601 12.5062 18.3648 12.5184C18.3696 12.5305 18.3768 12.5416 18.3862 12.5509L19.3397 13.4839C19.3566 13.5006 19.3793 13.5105 19.4032 13.5116C19.4272 13.5128 19.4507 13.505 19.4691 13.49C20.7504 12.4338 21.8595 11.1924 22.758 9.80851C22.9169 9.56464 23.0008 9.28127 23 8.99205C22.9991 8.70283 22.9135 8.41993 22.7532 8.17696Z" fill="#5F5D5D" />
            <path d="M11.5007 4.4902C11.1562 4.49007 10.8127 4.52783 10.4768 4.60279C10.4598 4.60624 10.4441 4.61413 10.4314 4.62562C10.4186 4.6371 10.4093 4.65176 10.4044 4.66803C10.3995 4.6843 10.3991 4.70157 10.4034 4.718C10.4078 4.73443 10.4165 4.74941 10.4289 4.76135L15.8237 10.0416C15.8359 10.0536 15.8512 10.0622 15.868 10.0665C15.8847 10.0707 15.9024 10.0704 15.919 10.0656C15.9356 10.0607 15.9506 10.0516 15.9623 10.0391C15.9741 10.0266 15.9821 10.0113 15.9856 9.99467C16.1392 9.33513 16.1391 8.65018 15.9852 7.9907C15.8313 7.33123 15.5277 6.71416 15.0968 6.18533C14.6659 5.6565 14.1189 5.2295 13.4963 4.93604C12.8738 4.64257 12.1917 4.49019 11.5007 4.4902ZM7.17778 7.94562C7.16559 7.93356 7.15029 7.92496 7.13351 7.92074C7.11673 7.91652 7.09909 7.91683 7.08247 7.92164C7.06585 7.92645 7.05088 7.93559 7.03914 7.94807C7.02741 7.96056 7.01935 7.97592 7.01583 7.99253C6.84206 8.73576 6.86388 9.51 7.07924 10.2427C7.2946 10.9754 7.69646 11.6426 8.24714 12.1817C8.79783 12.7209 9.47931 13.1143 10.2277 13.3251C10.9761 13.536 11.767 13.5573 12.5261 13.3872C12.5431 13.3838 12.5588 13.3759 12.5715 13.3644C12.5843 13.3529 12.5936 13.3383 12.5985 13.322C12.6035 13.3057 12.6038 13.2884 12.5995 13.272C12.5952 13.2556 12.5864 13.2406 12.574 13.2287L7.17778 7.94562Z" fill="#5F5D5D" />
        </symbol>
    </defs>
</svg>